<?xml version="1.0" encoding="UTF-8"?>
<!DOCTYPE svg PUBLIC "-//W3C//DTD SVG 1.1//EN" "http://www.w3.org/Graphics/SVG/1.1/DTD/svg11.dtd">
<svg xmlns="http://www.w3.org/2000/svg" version="1.1" width="1024px" height="1024px" style="shape-rendering:geometricPrecision; text-rendering:geometricPrecision; image-rendering:optimizeQuality; fill-rule:evenodd; clip-rule:evenodd" xmlns:xlink="http://www.w3.org/1999/xlink">
<g><path style="opacity:0.983" fill="#000000" d="M 510.5,240.5 C 536.935,263.094 558.768,289.427 576,319.5C 595.158,352.474 609.325,387.474 618.5,424.5C 628.26,413.568 638.26,402.735 648.5,392C 677.711,363.327 712.044,343.16 751.5,331.5C 759.422,359.624 762.756,388.291 761.5,417.5C 763.369,448.25 759.036,478.084 748.5,507C 748.833,507.5 749.167,508 749.5,508.5C 765.509,498.83 782.509,491.33 800.5,486C 823.145,480.122 846.145,476.622 869.5,475.5C 857.022,555.303 821.356,622.47 762.5,677C 688.804,740.981 605.637,757.148 513,725.5C 402.08,760.626 308.413,734.626 232,647.5C 197.586,607.68 173.919,562.013 161,510.5C 158.123,498.615 155.956,486.615 154.5,474.5C 194.755,475.977 232.422,486.477 267.5,506C 269.534,507.205 271.534,507.372 273.5,506.5C 263.268,479.941 258.935,452.441 260.5,424C 259.392,392.308 262.892,361.141 271,330.5C 271.674,329.422 272.674,328.755 274,328.5C 324.719,346.85 366.719,377.184 400,419.5C 401.242,420.872 402.742,421.872 404.5,422.5C 418.487,370.526 441.987,323.526 475,281.5C 486.669,267.666 498.503,253.999 510.5,240.5 Z M 509.5,299.5 C 511.199,299.34 512.866,299.506 514.5,300C 569.717,358.319 592.551,427.486 583,507.5C 574.596,569.116 551.762,624.616 514.5,674C 512.833,674.667 511.167,674.667 509.5,674C 491.389,652.172 476.889,628.006 466,601.5C 436.563,538.252 430.23,472.919 447,405.5C 459.924,365.29 480.758,329.957 509.5,299.5 Z M 297.5,384.5 C 306.743,386.953 315.409,390.786 323.5,396C 355.238,416.736 380.405,443.57 399,476.5C 402.931,546.633 424.931,610.3 465,667.5C 465.402,668.872 465.902,670.205 466.5,671.5C 466,671.833 465.5,672.167 465,672.5C 451.118,667.976 438.285,661.476 426.5,653C 373.942,617.043 335.775,569.543 312,510.5C 296.804,469.739 291.971,427.739 297.5,384.5 Z M 720.5,385.5 C 723.484,386.784 724.984,389.118 725,392.5C 732.027,464.059 713.694,528.392 670,585.5C 641.173,620.344 607.006,648.511 567.5,670C 564.568,671.145 561.568,671.978 558.5,672.5C 569.27,650.96 580.103,629.293 591,607.5C 609.148,567.105 619.815,524.772 623,480.5C 629.076,466.006 637.409,453.006 648,441.5C 668.664,417.967 692.831,399.3 720.5,385.5 Z M 203.5,519.5 C 241.501,526.747 274.001,544.081 301,571.5C 316.847,596.361 335.347,619.194 356.5,640C 383.591,663.391 413.258,683.058 445.5,699C 448.033,700.033 449.699,701.867 450.5,704.5C 398.837,711.584 351.504,700.417 308.5,671C 255.321,633.285 220.321,582.785 203.5,519.5 Z M 815.5,520.5 C 816.5,520.5 817.5,520.5 818.5,520.5C 805.917,573.847 778.917,618.347 737.5,654C 707.2,680.315 672.2,697.315 632.5,705C 611.192,706.751 589.858,706.918 568.5,705.5C 569,704.5 569.5,703.5 570,702.5C 605.131,686.369 637.297,665.869 666.5,641C 688.431,620.084 706.931,596.584 722,570.5C 748.292,544.77 779.458,528.103 815.5,520.5 Z"/></g>
</svg>
